<svg width="134" height="33" viewBox="0 0 134 33" fill="none" xmlns="http://www.w3.org/2000/svg">
<path fill-rule="evenodd" clip-rule="evenodd" d="M44.8372 25.3612C45.4219 26.6864 46.2014 27.8947 47.2148 28.9081C48.2672 29.9215 49.4365 30.74 50.7617 31.2857C52.1259 31.8703 53.607 32.1432 55.0881 32.1432C56.5693 32.1432 58.0504 31.8703 59.4146 31.2857C60.7398 30.74 61.9091 29.9215 62.9615 28.9081C63.9749 27.8947 64.7544 26.6864 65.3391 25.3612C65.9237 23.997 66.1965 22.5548 66.1965 21.0347V2.13097L60.35 0.182129V11.2516C60.0382 11.0956 59.7264 10.9397 59.4146 10.8228C58.0504 10.2382 56.6082 9.96532 55.0881 9.96532C53.607 9.96532 52.1259 10.2382 50.7617 10.8228C49.4365 11.3685 48.2672 12.187 47.2148 13.2004C46.2014 14.2138 45.4219 15.4221 44.8372 16.7473C44.2915 18.1115 43.9797 19.5536 43.9797 21.0347C43.9797 22.5548 44.2915 23.997 44.8372 25.3612ZM55.0881 15.7729C57.9724 15.7729 60.35 18.1505 60.35 21.0347C60.35 23.958 57.9724 26.2966 55.0881 26.2966C52.2039 26.2966 49.8263 23.958 49.8263 21.0347C49.8263 18.1505 52.2039 15.7729 55.0881 15.7729ZM36.5536 11.1735L36.5147 9.92627H42.3612V31.8702H36.5147L36.5536 30.9738C34.9946 31.7533 33.2796 32.1821 31.5256 32.1821C30.0445 32.1821 28.5634 31.8702 27.1992 31.3246C25.874 30.7399 24.7047 29.9604 23.6523 28.947C22.6389 27.8946 21.8594 26.7253 21.2747 25.4001C20.729 24.0359 20.4172 22.5548 20.4172 21.0737C20.4172 19.5925 20.729 18.1114 21.2747 16.7472C21.8594 15.422 22.6389 14.2137 23.6523 13.2003C24.7047 12.1869 25.874 11.4074 27.1992 10.8227C28.5634 10.2381 30.0445 9.96524 31.5256 9.96524C33.2796 9.96524 34.9946 10.394 36.5536 11.1735ZM31.5256 26.3355C32.4611 26.3355 33.3965 26.0627 34.1761 25.595C34.9946 25.1662 35.6182 24.5036 36.0859 23.7241C36.5537 22.9056 36.7875 22.0091 36.7875 21.0737C36.7875 20.2941 36.6316 19.5536 36.2808 18.852C35.8911 17.9555 35.2284 17.176 34.371 16.6693C33.5524 16.0846 32.539 15.8118 31.5256 15.8118C28.6414 15.8118 26.2638 18.1894 26.2638 21.0737C26.2638 23.9579 28.6414 26.3355 31.5256 26.3355ZM20.4772 27.3488C18.3724 30.389 14.9425 32.1819 11.3176 32.1819C9.79754 32.1819 8.35539 31.8701 6.9912 31.3244C5.66599 30.7397 4.45771 29.9602 3.44431 28.9468C2.43091 27.8944 1.6124 26.7251 1.06672 25.3999C0.48207 24.0357 0.209229 22.5546 0.209229 21.0735C0.209229 19.5924 0.48207 18.1112 1.06672 16.7471C1.6124 15.4218 2.43091 14.2525 3.44431 13.2002C4.45771 12.1868 5.66599 11.4072 6.9912 10.8226C8.35539 10.2379 9.79754 9.96509 11.3176 9.96509C13.1106 9.96509 14.9035 10.3938 16.5016 11.2513C18.0217 12.0698 19.3858 13.2391 20.3992 14.6813L15.6051 18.0333C14.6307 16.6301 12.9936 15.8116 11.3176 15.8116C8.39437 15.8116 6.05576 18.1502 6.05576 21.0735C6.05576 23.9578 8.39437 26.3354 11.3176 26.3354C13.0326 26.3354 14.6696 25.4779 15.6441 24.0357L20.4772 27.3488ZM82.7733 31.0907C81.3701 31.7143 79.889 32.0262 78.3689 32.0262C75.4067 32.0262 72.6783 30.8568 70.5735 28.7911C68.5078 26.7253 67.3774 23.9579 67.3774 21.0347C67.3774 18.1114 68.5078 15.3441 70.5735 13.2783C72.6783 11.2125 75.4067 10.0432 78.3689 10.0432C81.2922 10.0432 84.0595 11.2125 86.1253 13.2783C88.1911 15.3441 89.3214 18.1114 89.3214 21.0347V23.88H73.8476C74.783 25.3611 76.459 26.3745 78.3689 26.3745C79.85 26.3745 81.2142 25.7899 82.2276 24.6985L86.3591 28.5962C85.3457 29.6486 84.1375 30.5061 82.7733 31.0907ZM78.3689 15.6949C76.459 15.6949 74.783 16.7083 73.8476 18.2284H82.8902C81.9158 16.7083 80.2398 15.6949 78.3689 15.6949ZM107.435 13.3952C105.564 11.5633 103.109 10.5499 100.497 10.5499C99.094 10.5499 97.7688 10.8227 96.5606 11.3684V9.92627H90.714V19.4756C90.675 19.7874 90.675 20.0603 90.675 20.3721H90.714V31.8702H96.5606V19.7874C96.8334 17.8775 98.4704 16.3964 100.497 16.3964C102.68 16.3964 104.473 18.1894 104.473 20.3721V31.8702H110.319V20.3721C110.319 17.7216 109.267 15.2661 107.435 13.3952ZM127.983 11.1735L127.944 9.92627H133.791V31.8702H127.944L127.983 30.9738C126.424 31.7533 124.709 32.1821 122.955 32.1821C121.474 32.1821 119.993 31.8702 118.629 31.3246C117.304 30.7399 116.134 29.9604 115.082 28.947C114.069 27.8946 113.289 26.7253 112.704 25.4001C112.159 24.0359 111.847 22.5548 111.847 21.0737C111.847 19.5925 112.159 18.1114 112.704 16.7472C113.289 15.422 114.069 14.2137 115.082 13.2003C116.134 12.1869 117.304 11.4074 118.629 10.8227C119.993 10.2381 121.474 9.96524 122.955 9.96524C124.709 9.96524 126.424 10.394 127.983 11.1735ZM122.955 26.3355C123.891 26.3355 124.826 26.0627 125.606 25.595C126.424 25.1662 127.048 24.5036 127.516 23.7241C127.983 22.9056 128.217 22.0091 128.217 21.0737C128.217 20.2941 128.061 19.5536 127.71 18.852C127.321 17.9555 126.658 17.176 125.801 16.6693C124.982 16.0846 123.969 15.8118 122.955 15.8118C120.071 15.8118 117.693 18.1894 117.693 21.0737C117.693 23.9579 120.071 26.3355 122.955 26.3355Z" fill="white"/>
</svg>
