<svg width="24" height="26" viewBox="0 0 24 26" fill="none" xmlns="http://www.w3.org/2000/svg">
<g id="Menu">
<path id="Menu_2" fill-rule="evenodd" clip-rule="evenodd" d="M3.04348 7.87963H21.913C22.1898 7.87963 22.4552 7.78062 22.6509 7.60437C22.8466 7.42812 22.9565 7.18907 22.9565 6.93982C22.9565 6.69056 22.8466 6.45151 22.6509 6.27526C22.4552 6.09901 22.1898 6 21.913 6H3.04348C2.76673 6 2.50132 6.09901 2.30563 6.27526C2.10994 6.45151 2 6.69056 2 6.93982C2 7.18907 2.10994 7.42812 2.30563 7.60437C2.50132 7.78062 2.76673 7.87963 3.04348 7.87963ZM21.913 12.2654H7.04348C6.76673 12.2654 6.50131 12.3645 6.30562 12.5407C6.10993 12.717 6 12.956 6 13.2053C6 13.4545 6.10993 13.6936 6.30562 13.8698C6.50131 14.0461 6.76673 14.1451 7.04348 14.1451H21.913C22.1898 14.1451 22.4552 14.0461 22.6509 13.8698C22.8466 13.6936 22.9565 13.4545 22.9565 13.2053C22.9565 12.956 22.8466 12.717 22.6509 12.5407C22.4552 12.3645 22.1898 12.2654 21.913 12.2654ZM21.913 18.5309H3.04348C2.76673 18.5309 2.50132 18.6299 2.30563 18.8062C2.10994 18.9824 2 19.2215 2 19.4707C2 19.72 2.10994 19.959 2.30563 20.1353C2.50132 20.3115 2.76673 20.4105 3.04348 20.4105H21.913C22.1898 20.4105 22.4552 20.3115 22.6509 20.1353C22.8466 19.959 22.9565 19.72 22.9565 19.4707C22.9565 19.2215 22.8466 18.9824 22.6509 18.8062C22.4552 18.6299 22.1898 18.5309 21.913 18.5309Z" fill="white"/>
</g>
</svg>
