<svg width="235" height="276" viewBox="0 0 235 276" fill="none" xmlns="http://www.w3.org/2000/svg">
<g filter="url(#filter0_d_10632_38523)">
<path d="M20.0005 32.7852C20.0005 27.9877 23.8896 24.0986 28.6871 24.0986H205.893C210.69 24.0986 214.58 27.9877 214.58 32.7852V153.528H20.0005V32.7852Z" fill="white"/>
<path d="M20 153.528H214.579V250.818C214.579 255.615 210.69 259.504 205.893 259.504H28.6866C23.8891 259.504 20 255.615 20 250.818V153.528Z" fill="#EBBCAD"/>
<path d="M84.4 233.206H87.48V229.806C92.84 229.206 96.28 225.846 96.28 220.966C96.28 216.726 93.96 214.246 88.84 213.126L87.48 212.806V204.206C89.56 204.646 90.76 206.046 90.84 208.206H95.8C95.64 203.406 92.52 200.246 87.48 199.726V196.326H84.4V199.726C79.08 200.286 75.56 203.646 75.56 208.326C75.56 212.726 78.08 215.526 83.12 216.606L84.4 216.886V225.406C81.8 225.086 80.32 223.646 80.28 221.366H75.16C75.28 226.246 78.84 229.486 84.4 229.886V233.206ZM84.24 212.086C81.68 211.526 80.56 210.286 80.56 208.166C80.56 206.006 82 204.566 84.4 204.166V212.126L84.24 212.086ZM87.76 217.606C90.16 218.126 91.32 219.366 91.32 221.406C91.32 223.446 89.88 224.846 87.48 225.326V217.526L87.76 217.606ZM104.632 204.766V229.406H109.552V200.166H98.2319V204.766H104.632ZM134.129 229.366V224.606H121.969L127.249 220.086C131.689 216.286 133.929 213.206 133.929 209.126C133.929 203.206 130.049 199.646 123.809 199.646C117.609 199.646 113.529 203.806 113.489 210.206H118.569C118.609 206.446 120.609 204.206 123.809 204.206C126.889 204.206 128.689 206.086 128.689 209.406C128.689 212.206 127.369 214.126 123.409 217.486L113.849 225.566V229.406L134.129 229.366ZM136.484 214.846C136.484 223.886 141.084 229.926 148.844 229.926C156.604 229.926 161.244 223.886 161.244 214.846C161.244 205.766 156.324 199.606 148.844 199.606C141.364 199.606 136.484 205.766 136.484 214.846ZM141.524 214.846C141.524 207.926 144.244 204.126 148.844 204.126C153.484 204.126 156.204 207.926 156.204 214.846C156.204 221.606 153.484 225.406 148.844 225.406C144.244 225.406 141.524 221.606 141.524 214.846Z" fill="black"/>
<g filter="url(#filter1_d_10632_38523)">
<circle cx="117.994" cy="152.66" r="19.9791" fill="white"/>
<circle cx="117.994" cy="152.66" r="19.5448" stroke="#F3D6CD" stroke-width="0.868657"/>
</g>
<circle cx="118.03" cy="153.03" r="12.1612" stroke="#F3D6CD" stroke-width="1.73731"/>
<path d="M114 153.909L116.172 156.081L122.252 150" stroke="#F3D6CD" stroke-width="1.73731" stroke-linecap="round"/>
<path d="M75.2532 61.904C76.9452 61.904 78.0492 60.728 78.0492 59.108C78.0492 57.44 76.9572 56.324 75.2532 56.324H71.8812V65H73.0572V61.904H75.2532ZM75.0492 57.38C76.1532 57.38 76.8132 58.004 76.8132 59.096C76.8132 60.164 76.1652 60.848 75.0012 60.848H73.0572V57.38H75.0492ZM81.1024 65L81.8704 62.84H85.5184L86.2984 65H87.5344L84.3544 56.324H83.0464L79.8784 65H81.1024ZM83.5504 58.196C83.6104 58.016 83.6704 57.812 83.6944 57.692C83.7184 57.824 83.7784 58.028 83.8384 58.196L85.1704 61.82H82.2304L83.5504 58.196ZM92.101 61.472V65H93.277V61.472L96.193 56.324H94.909L92.989 59.792C92.833 60.08 92.809 60.152 92.701 60.368C92.605 60.164 92.533 59.996 92.413 59.792L90.481 56.324H89.161L92.101 61.472ZM99.8396 65V61.292C99.8396 60.08 99.8156 59.192 99.7556 58.772L102.276 65H103.38L105.912 58.748C105.852 59.36 105.84 59.948 105.84 61.568V65H106.992V56.324H105.816L102.828 63.62L99.8396 56.324H98.6876V65H99.8396ZM115.665 65V63.908H111.549V61.16H115.257V60.116H111.549V57.404H115.665V56.324H110.373V65H115.665ZM119.906 65V58.292L124.346 65H125.522V56.324H124.346V63.032L119.906 56.324H118.73V65H119.906ZM128.064 57.404H130.68V65H131.856V57.404H134.46V56.324H128.064V57.404ZM145.449 57.404H148.065V65H149.241V57.404H151.845V56.324H145.449V57.404ZM162.212 60.656C162.212 58.016 160.496 56.168 158.036 56.168C155.588 56.168 153.872 58.028 153.872 60.656C153.872 63.296 155.576 65.144 158.024 65.144C160.484 65.144 162.212 63.296 162.212 60.656ZM160.976 60.656C160.976 62.66 159.8 64.016 158.036 64.016C156.272 64.016 155.108 62.672 155.108 60.656C155.108 58.64 156.272 57.308 158.036 57.308C159.8 57.308 160.976 58.64 160.976 60.656Z" fill="#A0AEC0"/>
<path fill-rule="evenodd" clip-rule="evenodd" d="M94.628 105.179C95.2127 106.504 95.9922 107.713 97.0056 108.726C98.058 109.739 99.2273 110.558 100.552 111.104C101.917 111.688 103.398 111.961 104.879 111.961C106.36 111.961 107.841 111.688 109.205 111.104C110.531 110.558 111.7 109.739 112.752 108.726C113.766 107.713 114.545 106.504 115.13 105.179C115.714 103.815 115.987 102.373 115.987 100.853V81.9488L110.141 80V91.0694C109.829 90.9135 109.517 90.7576 109.205 90.6407C107.841 90.056 106.399 89.7832 104.879 89.7832C103.398 89.7832 101.917 90.056 100.552 90.6407C99.2273 91.1864 98.058 92.0049 97.0056 93.0183C95.9922 94.0317 95.2127 95.2399 94.628 96.5652C94.0823 97.9294 93.7705 99.3715 93.7705 100.853C93.7705 102.373 94.0823 103.815 94.628 105.179ZM104.879 95.5907C107.763 95.5907 110.141 97.9683 110.141 100.853C110.141 103.776 107.763 106.114 104.879 106.114C101.995 106.114 99.617 103.776 99.617 100.853C99.617 97.9683 101.995 95.5907 104.879 95.5907ZM86.3444 90.9914L86.3055 89.7441H92.152V111.688H86.3055L86.3444 110.792C84.7853 111.571 83.0704 112 81.3164 112C79.8353 112 78.3542 111.688 76.99 111.142C75.6648 110.558 74.4955 109.778 73.4431 108.765C72.4297 107.712 71.6502 106.543 71.0655 105.218C70.5198 103.854 70.208 102.373 70.208 100.892C70.208 99.4104 70.5198 97.9293 71.0655 96.5651C71.6502 95.2399 72.4297 94.0316 73.4431 93.0182C74.4955 92.0048 75.6648 91.2253 76.99 90.6406C78.3542 90.056 79.8353 89.7831 81.3164 89.7831C83.0704 89.7831 84.7853 90.2119 86.3444 90.9914ZM81.3164 106.153C82.2519 106.153 83.1873 105.881 83.9668 105.413C84.7854 104.984 85.409 104.321 85.8767 103.542C86.3444 102.723 86.5783 101.827 86.5783 100.892C86.5783 100.112 86.4224 99.3714 86.0716 98.6698C85.6818 97.7734 85.0192 96.9938 84.1617 96.4871C83.3432 95.9025 82.3298 95.6296 81.3164 95.6296C78.4321 95.6296 76.0545 98.0072 76.0545 100.892C76.0545 103.776 78.4321 106.153 81.3164 106.153ZM70.268 107.167C68.1632 110.207 64.7333 112 61.1084 112C59.5883 112 58.1462 111.688 56.782 111.142C55.4568 110.558 54.2485 109.778 53.2351 108.765C52.2217 107.712 51.4032 106.543 50.8575 105.218C50.2728 103.854 50 102.372 50 100.891C50 99.4102 50.2728 97.9291 50.8575 96.5649C51.4032 95.2397 52.2217 94.0704 53.2351 93.018C54.2485 92.0046 55.4568 91.2251 56.782 90.6405C58.1462 90.0558 59.5883 89.783 61.1084 89.783C62.9013 89.783 64.6943 90.2117 66.2923 91.0692C67.8124 91.8877 69.1766 93.057 70.19 94.4992L65.3959 97.8512C64.4214 96.448 62.7844 95.6295 61.1084 95.6295C58.1851 95.6295 55.8465 97.9681 55.8465 100.891C55.8465 103.776 58.1851 106.153 61.1084 106.153C62.8234 106.153 64.4604 105.296 65.4348 103.854L70.268 107.167ZM132.564 110.909C131.161 111.532 129.68 111.844 128.16 111.844C125.197 111.844 122.469 110.675 120.364 108.609C118.299 106.543 117.168 103.776 117.168 100.853C117.168 97.9293 118.299 95.1619 120.364 93.0962C122.469 91.0304 125.197 89.8611 128.16 89.8611C131.083 89.8611 133.85 91.0304 135.916 93.0962C137.982 95.1619 139.112 97.9293 139.112 100.853V103.698H123.638C124.574 105.179 126.25 106.192 128.16 106.192C129.641 106.192 131.005 105.608 132.018 104.516L136.15 108.414C135.137 109.466 133.928 110.324 132.564 110.909ZM128.16 95.5127C126.25 95.5127 124.574 96.5261 123.638 98.0462H132.681C131.707 96.5261 130.031 95.5127 128.16 95.5127ZM157.226 93.2131C155.355 91.3812 152.899 90.3678 150.288 90.3678C148.885 90.3678 147.56 90.6406 146.351 91.1863V89.7441H140.505V99.2935C140.466 99.6053 140.466 99.8781 140.466 100.19H140.505V111.688H146.351V99.6053C146.624 97.6954 148.261 96.2143 150.288 96.2143C152.471 96.2143 154.264 98.0072 154.264 100.19V111.688H160.11V100.19C160.11 97.5395 159.058 95.084 157.226 93.2131ZM177.774 90.9914L177.735 89.7441H183.582V111.688H177.735L177.774 110.792C176.215 111.571 174.5 112 172.746 112C171.265 112 169.784 111.688 168.42 111.142C167.094 110.558 165.925 109.778 164.873 108.765C163.859 107.712 163.08 106.543 162.495 105.218C161.95 103.854 161.638 102.373 161.638 100.892C161.638 99.4104 161.95 97.9293 162.495 96.5651C163.08 95.2399 163.859 94.0316 164.873 93.0182C165.925 92.0048 167.094 91.2253 168.42 90.6406C169.784 90.056 171.265 89.7831 172.746 89.7831C174.5 89.7831 176.215 90.2119 177.774 90.9914ZM172.746 106.153C173.682 106.153 174.617 105.881 175.397 105.413C176.215 104.984 176.839 104.321 177.306 103.542C177.774 102.723 178.008 101.827 178.008 100.892C178.008 100.112 177.852 99.3714 177.501 98.6698C177.111 97.7734 176.449 96.9938 175.591 96.4871C174.773 95.9025 173.759 95.6296 172.746 95.6296C169.862 95.6296 167.484 98.0072 167.484 100.892C167.484 103.776 169.862 106.153 172.746 106.153Z" fill="#0F0F14"/>
</g>
<defs>
<filter id="filter0_d_10632_38523" x="0" y="0.0986328" width="234.58" height="275.406" filterUnits="userSpaceOnUse" color-interpolation-filters="sRGB">
<feFlood flood-opacity="0" result="BackgroundImageFix"/>
<feColorMatrix in="SourceAlpha" type="matrix" values="0 0 0 0 0 0 0 0 0 0 0 0 0 0 0 0 0 0 127 0" result="hardAlpha"/>
<feOffset dy="-4"/>
<feGaussianBlur stdDeviation="10"/>
<feColorMatrix type="matrix" values="0 0 0 0 0 0 0 0 0 0 0 0 0 0 0 0 0 0 0.04 0"/>
<feBlend mode="normal" in2="BackgroundImageFix" result="effect1_dropShadow_10632_38523"/>
<feBlend mode="normal" in="SourceGraphic" in2="effect1_dropShadow_10632_38523" result="shape"/>
</filter>
<filter id="filter1_d_10632_38523" x="76.0151" y="122.681" width="83.9583" height="83.9582" filterUnits="userSpaceOnUse" color-interpolation-filters="sRGB">
<feFlood flood-opacity="0" result="BackgroundImageFix"/>
<feColorMatrix in="SourceAlpha" type="matrix" values="0 0 0 0 0 0 0 0 0 0 0 0 0 0 0 0 0 0 127 0" result="hardAlpha"/>
<feMorphology radius="8" operator="erode" in="SourceAlpha" result="effect1_dropShadow_10632_38523"/>
<feOffset dy="12"/>
<feGaussianBlur stdDeviation="15"/>
<feColorMatrix type="matrix" values="0 0 0 0 0 0 0 0 0 0 0 0 0 0 0 0 0 0 0.2 0"/>
<feBlend mode="normal" in2="BackgroundImageFix" result="effect1_dropShadow_10632_38523"/>
<feBlend mode="normal" in="SourceGraphic" in2="effect1_dropShadow_10632_38523" result="shape"/>
</filter>
</defs>
</svg>
