<svg width="343" height="89" viewBox="0 0 343 89" fill="none" xmlns="http://www.w3.org/2000/svg">
<rect x="0.5" y="0.5" width="342" height="79" rx="19.5" fill="white" stroke="white"/>
<g filter="url(#filter0_d_10632_38562)">
<path d="M49.9937 40.2912C49.9908 42.1256 49.4441 43.918 48.4228 45.4417C47.4014 46.9655 45.9512 48.1522 44.2555 48.8519C42.5598 49.5516 40.6947 49.7329 38.896 49.3728C37.0973 49.0127 35.4458 48.1274 34.1501 46.8288C32.8545 45.5303 31.9729 43.8767 31.6169 42.0772C31.2608 40.2777 31.4463 38.413 32.1498 36.7189C32.8533 35.0248 34.0433 33.5773 35.5693 32.5593C37.0953 31.5414 38.8889 30.9988 40.7233 31C41.9426 31.0007 43.1497 31.2416 44.2759 31.7089C45.402 32.1763 46.425 32.8609 47.2865 33.7237C48.148 34.5866 48.831 35.6107 49.2966 36.7375C49.7622 37.8644 50.0012 39.072 49.9999 40.2912H49.9937Z" fill="#F79F1A"/>
<path d="M38.5533 40.2912C38.5504 42.1256 38.0037 43.918 36.9823 45.4417C35.961 46.9655 34.5108 48.1522 32.8151 48.8519C31.1194 49.5516 29.2543 49.7329 27.4556 49.3728C25.6569 49.0127 24.0054 48.1274 22.7097 46.8288C21.4141 45.5303 20.5325 43.8767 20.1764 42.0772C19.8204 40.2777 20.0058 38.413 20.7093 36.7189C21.4128 35.0248 22.6028 33.5773 24.1289 32.5593C25.6549 31.5414 27.4485 30.9988 29.2829 31C30.5021 31.0007 31.7093 31.2416 32.8355 31.7089C33.9616 32.1763 34.9846 32.8609 35.8461 33.7237C36.7076 34.5866 37.3906 35.6107 37.8562 36.7375C38.3217 37.8644 38.5607 39.072 38.5595 40.2912H38.5533Z" fill="#EA001B"/>
<path d="M35.0002 32.9773C33.8932 33.8481 32.9983 34.9589 32.383 36.2258C31.7677 37.4927 31.448 38.8828 31.448 40.2913C31.448 41.6997 31.7677 43.0898 32.383 44.3567C32.9983 45.6237 33.8932 46.7344 35.0002 47.6052C36.1088 46.7355 37.0048 45.6249 37.6205 44.3575C38.2361 43.0901 38.5552 41.6992 38.5534 40.2902C38.5553 38.8815 38.2363 37.4908 37.6206 36.2238C37.005 34.9567 36.1088 33.8465 35.0002 32.9773V32.9773Z" fill="#FF5F01"/>
</g>
<path d="M66.896 56V51.788C66.896 50.48 66.872 49.532 66.824 49.208L69.62 56H70.448L73.244 49.172C73.196 49.76 73.172 50.42 73.172 51.92V56H74.024V47.408H73.16L70.028 54.98L66.896 47.408H66.044V56H66.896ZM77.5984 56.144C78.5824 56.144 79.3744 55.712 79.7344 54.98L79.8424 56H80.5384V52.244C80.5384 50.708 79.5544 50.036 78.2104 50.036C76.7824 50.036 75.8224 50.792 75.8224 51.968H76.5784C76.5784 51.188 77.1784 50.732 78.1864 50.732C79.0384 50.732 79.7224 51.092 79.7224 52.232V52.424L77.8024 52.58C76.4464 52.688 75.6304 53.36 75.6304 54.428C75.6304 55.448 76.3624 56.144 77.5984 56.144ZM77.7904 55.472C76.9984 55.472 76.4704 55.112 76.4704 54.404C76.4704 53.756 76.9144 53.276 78.0064 53.18L79.7224 53.048V53.36C79.7224 54.62 79.0144 55.472 77.7904 55.472ZM81.7079 54.368C81.7079 55.448 82.5239 56.144 83.8319 56.144C85.1519 56.144 86.0399 55.46 86.0399 54.416C86.0399 53.576 85.5839 53.108 84.5759 52.856L83.5799 52.604C82.9439 52.448 82.6319 52.136 82.6319 51.692C82.6319 51.068 83.0879 50.72 83.9039 50.72C84.6839 50.72 85.1519 51.116 85.1759 51.788H85.9799C85.9439 50.708 85.1519 50.036 83.9279 50.036C82.6799 50.036 81.8279 50.684 81.8279 51.704C81.8279 52.496 82.3199 53.024 83.3279 53.276L84.3239 53.528C85.0079 53.696 85.2479 53.972 85.2479 54.452C85.2479 55.076 84.7199 55.46 83.8199 55.46C83.0039 55.46 82.4999 55.04 82.4999 54.368H81.7079ZM88.7351 56V50.888H89.8991V50.192H88.7351V48.356H87.9191V50.192H86.7551V50.888H87.9191V56H88.7351ZM93.3547 56.144C94.7227 56.144 95.6227 55.484 95.9347 54.26H95.1427C94.9267 55.028 94.3147 55.436 93.3667 55.436C92.1187 55.436 91.3747 54.62 91.3147 53.204H95.9347V52.796C95.9347 51.152 94.8667 50.036 93.2947 50.036C91.6387 50.036 90.5107 51.284 90.5107 53.096C90.5107 54.92 91.6507 56.144 93.3547 56.144ZM93.2947 50.744C94.3867 50.744 95.1067 51.488 95.1067 52.604H91.3387C91.4827 51.464 92.2027 50.744 93.2947 50.744ZM100.295 50.12C100.091 50.072 99.9345 50.06 99.7545 50.06C98.9385 50.06 98.3265 50.468 98.0985 51.092L98.0385 50.192H97.2585V56H98.0865V52.688C98.0865 51.584 98.7705 50.864 99.8385 50.864H100.295V50.12ZM100.765 53.108C100.765 54.932 101.881 56.144 103.525 56.144C104.845 56.144 105.877 55.364 106.153 54.176H105.313C105.085 54.92 104.389 55.4 103.525 55.4C102.349 55.4 101.581 54.476 101.581 53.096C101.581 51.668 102.409 50.768 103.585 50.768C104.389 50.768 105.085 51.212 105.301 52.016H106.129C105.901 50.816 104.917 50.036 103.573 50.036C101.881 50.036 100.765 51.284 100.765 53.108ZM109.075 56.144C110.059 56.144 110.851 55.712 111.211 54.98L111.319 56H112.015V52.244C112.015 50.708 111.031 50.036 109.687 50.036C108.259 50.036 107.299 50.792 107.299 51.968H108.055C108.055 51.188 108.655 50.732 109.663 50.732C110.515 50.732 111.199 51.092 111.199 52.232V52.424L109.279 52.58C107.923 52.688 107.107 53.36 107.107 54.428C107.107 55.448 107.839 56.144 109.075 56.144ZM109.267 55.472C108.475 55.472 107.947 55.112 107.947 54.404C107.947 53.756 108.391 53.276 109.483 53.18L111.199 53.048V53.36C111.199 54.62 110.491 55.472 109.267 55.472ZM116.713 50.12C116.509 50.072 116.353 50.06 116.173 50.06C115.357 50.06 114.745 50.468 114.517 51.092L114.457 50.192H113.677V56H114.505V52.688C114.505 51.584 115.189 50.864 116.257 50.864H116.713V50.12ZM119.871 56.144C120.843 56.144 121.659 55.712 122.067 54.812L122.151 56H122.871V47.252H122.043V51.296C121.635 50.456 120.867 50.036 119.907 50.036C118.179 50.036 117.183 51.356 117.183 53.108C117.183 54.848 118.179 56.144 119.871 56.144ZM120.015 55.388C118.755 55.388 118.023 54.428 118.023 53.084C118.023 51.752 118.755 50.78 120.015 50.78C121.287 50.78 122.031 51.752 122.031 53.084C122.031 54.428 121.287 55.388 120.015 55.388ZM129.331 54.476C130.219 54.476 130.963 53.72 130.963 52.844C130.963 51.956 130.219 51.2 129.331 51.2C128.419 51.2 127.675 51.956 127.675 52.844C127.675 53.732 128.431 54.476 129.331 54.476ZM140.506 53.096C141.322 52.004 141.586 51.308 141.586 50.312C141.586 48.584 140.23 47.252 138.502 47.252C136.786 47.252 135.454 48.548 135.454 50.3C135.454 51.98 136.642 53.288 138.43 53.288C138.838 53.288 139.21 53.216 139.606 53L137.35 56H138.358L140.506 53.096ZM140.722 50.3C140.722 51.596 139.81 52.532 138.502 52.532C137.23 52.532 136.318 51.596 136.318 50.3C136.318 48.992 137.23 48.044 138.502 48.044C139.81 48.044 140.722 48.992 140.722 50.3ZM144.958 51.392C146.494 51.392 147.334 52.124 147.334 53.3C147.334 54.548 146.506 55.364 145.222 55.364C144.01 55.364 143.242 54.62 143.242 53.384H142.39C142.39 55.1 143.53 56.144 145.222 56.144C146.962 56.144 148.21 55.028 148.21 53.324C148.21 51.764 147.058 50.744 145.45 50.66L148.018 48.104V47.408H142.81V48.176H146.926L144.274 50.792V51.392H144.958ZM154.346 53.096C155.162 52.004 155.426 51.308 155.426 50.312C155.426 48.584 154.07 47.252 152.342 47.252C150.626 47.252 149.294 48.548 149.294 50.3C149.294 51.98 150.482 53.288 152.27 53.288C152.678 53.288 153.05 53.216 153.446 53L151.19 56H152.198L154.346 53.096ZM154.562 50.3C154.562 51.596 153.65 52.532 152.342 52.532C151.07 52.532 150.158 51.596 150.158 50.3C150.158 48.992 151.07 48.044 152.342 48.044C153.65 48.044 154.562 48.992 154.562 50.3ZM156.633 51.704C156.633 54.38 157.917 56.156 160.077 56.156C162.225 56.156 163.509 54.38 163.509 51.704C163.509 49.04 162.201 47.24 160.077 47.24C157.941 47.24 156.633 49.04 156.633 51.704ZM157.485 51.704C157.485 49.46 158.433 48.032 160.077 48.032C161.721 48.032 162.669 49.46 162.669 51.704C162.669 53.936 161.721 55.376 160.077 55.376C158.433 55.376 157.485 53.936 157.485 51.704Z" fill="#797B89"/>
<path d="M69.004 32H70.852L74.66 21.766H72.798L70.586 27.66C70.39 28.178 70.18 28.808 69.928 29.704C69.704 28.878 69.508 28.276 69.284 27.66L67.044 21.766H65.14L69.004 32ZM77.7287 21.766H75.9367V32H77.7287V21.766ZM79.4093 24.622C79.4093 26.19 80.3193 27.184 82.0553 27.562L83.6793 27.926C84.5193 28.108 84.8693 28.514 84.8693 29.2C84.8693 30.054 84.1133 30.572 82.9233 30.572C81.7753 30.572 81.0753 30.054 81.0613 29.186H79.2693C79.3113 31.02 80.7393 32.182 82.9233 32.182C85.1773 32.182 86.6613 30.95 86.6613 29.046C86.6613 27.52 85.8073 26.624 84.0573 26.246L82.4473 25.896C81.5933 25.7 81.2013 25.294 81.2013 24.566C81.2013 23.712 81.9153 23.18 83.0213 23.18C84.0293 23.18 84.6593 23.698 84.7013 24.58H86.4933C86.4373 22.732 85.1213 21.584 83.0493 21.584C80.8933 21.584 79.4093 22.83 79.4093 24.622ZM89.1644 32L89.9904 29.634H93.8124L94.6384 32H96.5284L92.8324 21.766H90.9984L87.3024 32H89.1644ZM91.6844 24.818C91.7824 24.538 91.8664 24.23 91.9084 24.034C91.9364 24.244 92.0344 24.552 92.1184 24.818L93.2944 28.122H90.5224L91.6844 24.818Z" fill="#1B1C20"/>
<path d="M251.94 46.552H252.964V45.16C255.076 44.968 256.436 43.688 256.436 41.784C256.436 40.184 255.508 39.176 253.588 38.744L252.964 38.6V34.632C254.004 34.776 254.628 35.432 254.692 36.456H256.244C256.132 34.6 254.9 33.416 252.964 33.24V31.864H251.94V33.256C249.86 33.432 248.5 34.728 248.5 36.552C248.5 38.2 249.476 39.256 251.364 39.688L251.94 39.816V43.8C250.724 43.672 249.972 43 249.94 41.976H248.34C248.436 43.848 249.828 45.048 251.94 45.176V46.552ZM251.684 38.296C250.564 38.024 250.036 37.432 250.036 36.504C250.036 35.48 250.756 34.792 251.94 34.632V38.36L251.684 38.296ZM253.268 40.136C254.372 40.392 254.9 40.984 254.9 41.912C254.9 42.92 254.164 43.608 252.964 43.768V40.072L253.268 40.136ZM261.159 39.016C262.999 39.016 263.959 39.944 263.959 41.336C263.959 42.824 262.983 43.784 261.479 43.784C260.023 43.784 259.095 42.904 259.095 41.4H257.543C257.543 43.8 259.174 45.192 261.447 45.192C263.799 45.192 265.559 43.704 265.559 41.368C265.559 39.288 264.071 37.96 262.103 37.72L265.271 34.696V33.432H258.087V34.824H263.287L260.007 37.976V39.016H261.159ZM275.203 45.192C277.699 45.192 279.411 43.512 279.411 41.112C279.411 38.888 277.891 37.24 275.539 37.24C274.675 37.24 273.907 37.48 273.299 37.944L274.067 34.872H278.723V33.432H272.931L271.523 39.368L272.851 39.704C273.379 39.048 274.275 38.584 275.251 38.584C276.867 38.584 277.811 39.688 277.811 41.176C277.811 42.744 276.803 43.784 275.235 43.784C273.763 43.784 272.851 42.872 272.851 41.384H271.299C271.299 43.688 272.835 45.192 275.203 45.192ZM288.294 44.984V43.528H282.95L285.35 41.448C287.398 39.672 288.214 38.504 288.214 36.856C288.214 34.632 286.726 33.224 284.406 33.224C282.054 33.224 280.486 34.84 280.438 37.32H282.006C282.038 35.672 282.966 34.632 284.39 34.632C285.782 34.632 286.614 35.496 286.614 36.952C286.614 38.184 286.086 38.968 284.214 40.584L280.486 43.8V45L288.294 44.984ZM289.737 39.224C289.737 42.824 291.513 45.208 294.505 45.208C297.481 45.208 299.257 42.824 299.257 39.224C299.257 35.64 297.401 33.208 294.505 33.208C291.593 33.208 289.737 35.64 289.737 39.224ZM291.289 39.224C291.289 36.344 292.473 34.616 294.505 34.616C296.537 34.616 297.705 36.344 297.705 39.224C297.705 42.072 296.537 43.8 294.505 43.8C292.473 43.8 291.289 42.072 291.289 39.224ZM301.599 45.192C302.207 45.192 302.735 44.68 302.735 44.072C302.735 43.448 302.207 42.936 301.599 42.936C300.975 42.936 300.447 43.448 300.447 44.072C300.447 44.68 300.975 45.192 301.599 45.192ZM312.955 42.664V41.272H311.579V33.432H309.547L304.091 41.272V42.664H310.075V45H311.579V42.664H312.955ZM305.787 41.272L310.075 35.096V41.272H305.787ZM318.219 45.192C320.715 45.192 322.427 43.512 322.427 41.112C322.427 38.888 320.907 37.24 318.555 37.24C317.691 37.24 316.923 37.48 316.315 37.944L317.083 34.872H321.739V33.432H315.947L314.539 39.368L315.867 39.704C316.395 39.048 317.291 38.584 318.267 38.584C319.883 38.584 320.827 39.688 320.827 41.176C320.827 42.744 319.819 43.784 318.251 43.784C316.779 43.784 315.867 42.872 315.867 41.384H314.315C314.315 43.688 315.851 45.192 318.219 45.192Z" fill="#1B1C20"/>
<circle cx="172" cy="80" r="9" fill="#712FFF"/>
<path d="M175.255 78.9378L172.995 81.2889C172.522 81.7812 172.05 82.2734 171.579 82.7647C171.277 83.0784 170.765 83.0784 170.461 82.7647C170.369 82.6676 170.277 82.5714 170.186 82.4751C169.532 81.7932 168.879 81.1131 168.226 80.4303C167.914 80.1064 167.935 79.5966 168.226 79.2681C168.514 78.9406 169.051 78.9637 169.343 79.2681C169.437 79.3644 169.529 79.4606 169.62 79.5568C170.087 80.0435 170.555 80.533 171.021 81.0197C171.761 80.2489 172.5 79.481 173.239 78.7102L174.656 77.2353C174.968 76.9106 175.458 76.9328 175.773 77.2353C176.087 77.5379 176.065 78.0949 175.772 78.3993C175.601 78.5779 175.426 78.7592 175.255 78.9378Z" fill="white"/>
<defs>
<filter id="filter0_d_10632_38562" x="0" y="21" width="70" height="58.5533" filterUnits="userSpaceOnUse" color-interpolation-filters="sRGB">
<feFlood flood-opacity="0" result="BackgroundImageFix"/>
<feColorMatrix in="SourceAlpha" type="matrix" values="0 0 0 0 0 0 0 0 0 0 0 0 0 0 0 0 0 0 127 0" result="hardAlpha"/>
<feOffset dy="10"/>
<feGaussianBlur stdDeviation="10"/>
<feColorMatrix type="matrix" values="0 0 0 0 0.917647 0 0 0 0 0 0 0 0 0 0.105882 0 0 0 0.25 0"/>
<feBlend mode="normal" in2="BackgroundImageFix" result="effect1_dropShadow_10632_38562"/>
<feBlend mode="normal" in="SourceGraphic" in2="effect1_dropShadow_10632_38562" result="shape"/>
</filter>
</defs>
</svg>
